<mxfile host="app.diagrams.net" agent="Mozilla/5.0 (Windows NT 10.0; Win64; x64) AppleWebKit/537.36 (KHTML, like Gecko) Chrome/135.0.0.0 Safari/537.36" version="26.2.14">
  <diagram id="AFGC0dnQvrQcvW_sgpIP" name="Page-1">
    <mxGraphModel dx="2633" dy="2221" grid="1" gridSize="10" guides="1" tooltips="1" connect="1" arrows="1" fold="1" page="1" pageScale="1" pageWidth="850" pageHeight="1100" math="0" shadow="0">
      <root>
        <mxCell id="0" />
        <mxCell id="1" parent="0" />
        <mxCell id="hxu1r069ynIci4zNe8fm-2" value="" style="shape=umlLifeline;perimeter=lifelinePerimeter;whiteSpace=wrap;html=1;container=1;dropTarget=0;collapsible=0;recursiveResize=0;outlineConnect=0;portConstraint=eastwest;newEdgeStyle={&quot;curved&quot;:0,&quot;rounded&quot;:0};participant=umlActor;" parent="1" vertex="1">
          <mxGeometry x="-120" width="30" height="1300" as="geometry" />
        </mxCell>
        <mxCell id="hxu1r069ynIci4zNe8fm-3" value="Student" style="text;html=1;align=center;verticalAlign=middle;resizable=0;points=[];autosize=1;strokeColor=none;fillColor=none;fontSize=14;fontStyle=1" parent="1" vertex="1">
          <mxGeometry x="-140" y="-30" width="70" height="30" as="geometry" />
        </mxCell>
        <mxCell id="hxu1r069ynIci4zNe8fm-4" value="student-homepage" style="shape=umlLifeline;perimeter=lifelinePerimeter;whiteSpace=wrap;html=1;container=1;dropTarget=0;collapsible=0;recursiveResize=0;outlineConnect=0;portConstraint=eastwest;newEdgeStyle={&quot;curved&quot;:0,&quot;rounded&quot;:0};fontSize=14;fontStyle=1" parent="1" vertex="1">
          <mxGeometry x="70" width="160" height="1330" as="geometry" />
        </mxCell>
        <mxCell id="hxu1r069ynIci4zNe8fm-6" value="" style="html=1;points=[[0,0,0,0,5],[0,1,0,0,-5],[1,0,0,0,5],[1,1,0,0,-5]];perimeter=orthogonalPerimeter;outlineConnect=0;targetShapes=umlLifeline;portConstraint=eastwest;newEdgeStyle={&quot;curved&quot;:0,&quot;rounded&quot;:0};strokeColor=#000000;fillColor=#dae8fc;" parent="hxu1r069ynIci4zNe8fm-4" vertex="1">
          <mxGeometry x="75" y="90" width="10" height="50" as="geometry" />
        </mxCell>
        <mxCell id="hxu1r069ynIci4zNe8fm-88" value="" style="html=1;points=[[0,0,0,0,5],[0,1,0,0,-5],[1,0,0,0,5],[1,1,0,0,-5]];perimeter=orthogonalPerimeter;outlineConnect=0;targetShapes=umlLifeline;portConstraint=eastwest;newEdgeStyle={&quot;curved&quot;:0,&quot;rounded&quot;:0};strokeColor=#000000;fillColor=#dae8fc;" parent="hxu1r069ynIci4zNe8fm-4" vertex="1">
          <mxGeometry x="75" y="490" width="10" height="50" as="geometry" />
        </mxCell>
        <mxCell id="hxu1r069ynIci4zNe8fm-5" value="StudentController" style="shape=umlLifeline;perimeter=lifelinePerimeter;whiteSpace=wrap;html=1;container=1;dropTarget=0;collapsible=0;recursiveResize=0;outlineConnect=0;portConstraint=eastwest;newEdgeStyle={&quot;curved&quot;:0,&quot;rounded&quot;:0};fontSize=14;fontStyle=1" parent="1" vertex="1">
          <mxGeometry x="320" width="160" height="1760" as="geometry" />
        </mxCell>
        <mxCell id="hxu1r069ynIci4zNe8fm-11" value="" style="html=1;points=[[0,0,0,0,5],[0,1,0,0,-5],[1,0,0,0,5],[1,1,0,0,-5]];perimeter=orthogonalPerimeter;outlineConnect=0;targetShapes=umlLifeline;portConstraint=eastwest;newEdgeStyle={&quot;curved&quot;:0,&quot;rounded&quot;:0};strokeColor=#000000;fillColor=#dae8fc;" parent="hxu1r069ynIci4zNe8fm-5" vertex="1">
          <mxGeometry x="75" y="110" width="10" height="310" as="geometry" />
        </mxCell>
        <mxCell id="hxu1r069ynIci4zNe8fm-84" value="" style="html=1;points=[[0,0,0,0,5],[0,1,0,0,-5],[1,0,0,0,5],[1,1,0,0,-5]];perimeter=orthogonalPerimeter;outlineConnect=0;targetShapes=umlLifeline;portConstraint=eastwest;newEdgeStyle={&quot;curved&quot;:0,&quot;rounded&quot;:0};strokeColor=#000000;fillColor=#dae8fc;" parent="hxu1r069ynIci4zNe8fm-5" vertex="1">
          <mxGeometry x="75" y="470" width="10" height="60" as="geometry" />
        </mxCell>
        <mxCell id="hxu1r069ynIci4zNe8fm-91" value="" style="html=1;points=[[0,0,0,0,5],[0,1,0,0,-5],[1,0,0,0,5],[1,1,0,0,-5]];perimeter=orthogonalPerimeter;outlineConnect=0;targetShapes=umlLifeline;portConstraint=eastwest;newEdgeStyle={&quot;curved&quot;:0,&quot;rounded&quot;:0};strokeColor=#000000;fillColor=#dae8fc;" parent="hxu1r069ynIci4zNe8fm-5" vertex="1">
          <mxGeometry x="75" y="600" width="10" height="50" as="geometry" />
        </mxCell>
        <mxCell id="hxu1r069ynIci4zNe8fm-7" value="" style="endArrow=classic;html=1;rounded=0;" parent="1" target="hxu1r069ynIci4zNe8fm-4" edge="1">
          <mxGeometry width="50" height="50" relative="1" as="geometry">
            <mxPoint x="-100" y="110" as="sourcePoint" />
            <mxPoint x="140" y="110" as="targetPoint" />
          </mxGeometry>
        </mxCell>
        <mxCell id="hxu1r069ynIci4zNe8fm-9" value="&lt;font style=&quot;font-size: 13px;&quot;&gt;&lt;i&gt;Selects &quot;View Availabe Traineeships&quot;&lt;/i&gt;&lt;/font&gt;" style="text;html=1;align=center;verticalAlign=middle;resizable=0;points=[];autosize=1;strokeColor=none;fillColor=none;" parent="1" vertex="1">
          <mxGeometry x="-100" y="80" width="240" height="30" as="geometry" />
        </mxCell>
        <mxCell id="hxu1r069ynIci4zNe8fm-12" value="" style="endArrow=classic;html=1;rounded=0;" parent="1" source="hxu1r069ynIci4zNe8fm-4" target="hxu1r069ynIci4zNe8fm-5" edge="1">
          <mxGeometry width="50" height="50" relative="1" as="geometry">
            <mxPoint x="160" y="130" as="sourcePoint" />
            <mxPoint x="390" y="130" as="targetPoint" />
            <Array as="points">
              <mxPoint x="220" y="130" />
            </Array>
          </mxGeometry>
        </mxCell>
        <mxCell id="hxu1r069ynIci4zNe8fm-14" value="availableCompanyTraineeships()" style="text;html=1;align=center;verticalAlign=middle;resizable=0;points=[];autosize=1;strokeColor=none;fillColor=none;fontSize=13;fontStyle=2" parent="1" vertex="1">
          <mxGeometry x="180" y="100" width="210" height="30" as="geometry" />
        </mxCell>
        <mxCell id="hxu1r069ynIci4zNe8fm-16" value="StudentService" style="shape=umlLifeline;perimeter=lifelinePerimeter;whiteSpace=wrap;html=1;container=1;dropTarget=0;collapsible=0;recursiveResize=0;outlineConnect=0;portConstraint=eastwest;newEdgeStyle={&quot;curved&quot;:0,&quot;rounded&quot;:0};fontSize=14;fontStyle=1" parent="1" vertex="1">
          <mxGeometry x="600" width="160" height="1400" as="geometry" />
        </mxCell>
        <mxCell id="hxu1r069ynIci4zNe8fm-17" value="" style="html=1;points=[[0,0,0,0,5],[0,1,0,0,-5],[1,0,0,0,5],[1,1,0,0,-5]];perimeter=orthogonalPerimeter;outlineConnect=0;targetShapes=umlLifeline;portConstraint=eastwest;newEdgeStyle={&quot;curved&quot;:0,&quot;rounded&quot;:0};strokeColor=#000000;fillColor=#dae8fc;" parent="hxu1r069ynIci4zNe8fm-16" vertex="1">
          <mxGeometry x="75" y="110" width="10" height="210" as="geometry" />
        </mxCell>
        <mxCell id="hxu1r069ynIci4zNe8fm-48" value="" style="html=1;points=[[0,0,0,0,5],[0,1,0,0,-5],[1,0,0,0,5],[1,1,0,0,-5]];perimeter=orthogonalPerimeter;outlineConnect=0;targetShapes=umlLifeline;portConstraint=eastwest;newEdgeStyle={&quot;curved&quot;:0,&quot;rounded&quot;:0};strokeColor=#000000;fillColor=#dae8fc;" parent="hxu1r069ynIci4zNe8fm-16" vertex="1">
          <mxGeometry x="75" y="1240" width="10" height="60" as="geometry" />
        </mxCell>
        <mxCell id="hxu1r069ynIci4zNe8fm-18" value="" style="endArrow=classic;html=1;rounded=0;" parent="1" edge="1">
          <mxGeometry width="50" height="50" relative="1" as="geometry">
            <mxPoint x="399.5" y="150" as="sourcePoint" />
            <mxPoint x="679.5" y="150" as="targetPoint" />
            <Array as="points">
              <mxPoint x="495" y="150" />
            </Array>
          </mxGeometry>
        </mxCell>
        <mxCell id="hxu1r069ynIci4zNe8fm-20" value="retrieveCompaniesAvailablePositions()" style="text;html=1;align=center;verticalAlign=middle;resizable=0;points=[];autosize=1;strokeColor=none;fillColor=none;fontSize=13;fontStyle=2" parent="1" vertex="1">
          <mxGeometry x="420" y="120" width="250" height="30" as="geometry" />
        </mxCell>
        <mxCell id="hxu1r069ynIci4zNe8fm-22" value="TraineeshipDAORepository" style="shape=umlLifeline;perimeter=lifelinePerimeter;whiteSpace=wrap;html=1;container=1;dropTarget=0;collapsible=0;recursiveResize=0;outlineConnect=0;portConstraint=eastwest;newEdgeStyle={&quot;curved&quot;:0,&quot;rounded&quot;:0};fontSize=14;fontStyle=1" parent="1" vertex="1">
          <mxGeometry x="840" width="240" height="1610" as="geometry" />
        </mxCell>
        <mxCell id="hxu1r069ynIci4zNe8fm-23" value="" style="html=1;points=[[0,0,0,0,5],[0,1,0,0,-5],[1,0,0,0,5],[1,1,0,0,-5]];perimeter=orthogonalPerimeter;outlineConnect=0;targetShapes=umlLifeline;portConstraint=eastwest;newEdgeStyle={&quot;curved&quot;:0,&quot;rounded&quot;:0};strokeColor=#000000;fillColor=#dae8fc;" parent="hxu1r069ynIci4zNe8fm-22" vertex="1">
          <mxGeometry x="115" y="140" width="10" height="140" as="geometry" />
        </mxCell>
        <mxCell id="hxu1r069ynIci4zNe8fm-24" value="Database (MySQL)" style="shape=umlLifeline;perimeter=lifelinePerimeter;whiteSpace=wrap;html=1;container=1;dropTarget=0;collapsible=0;recursiveResize=0;outlineConnect=0;portConstraint=eastwest;newEdgeStyle={&quot;curved&quot;:0,&quot;rounded&quot;:0};fontSize=14;fontStyle=1" parent="1" vertex="1">
          <mxGeometry x="1160" width="100" height="1150" as="geometry" />
        </mxCell>
        <mxCell id="hxu1r069ynIci4zNe8fm-33" value="" style="html=1;points=[[0,0,0,0,5],[0,1,0,0,-5],[1,0,0,0,5],[1,1,0,0,-5]];perimeter=orthogonalPerimeter;outlineConnect=0;targetShapes=umlLifeline;portConstraint=eastwest;newEdgeStyle={&quot;curved&quot;:0,&quot;rounded&quot;:0};strokeColor=#000000;fillColor=#dae8fc;" parent="hxu1r069ynIci4zNe8fm-24" vertex="1">
          <mxGeometry x="45" y="180" width="10" height="90" as="geometry" />
        </mxCell>
        <mxCell id="hxu1r069ynIci4zNe8fm-28" value="" style="endArrow=classic;html=1;rounded=0;" parent="1" source="hxu1r069ynIci4zNe8fm-16" target="hxu1r069ynIci4zNe8fm-22" edge="1">
          <mxGeometry width="50" height="50" relative="1" as="geometry">
            <mxPoint x="720" y="170" as="sourcePoint" />
            <mxPoint x="1000" y="170" as="targetPoint" />
            <Array as="points">
              <mxPoint x="815" y="170" />
            </Array>
          </mxGeometry>
        </mxCell>
        <mxCell id="hxu1r069ynIci4zNe8fm-29" value="findAvailablePosition()" style="text;html=1;align=center;verticalAlign=middle;resizable=0;points=[];autosize=1;strokeColor=none;fillColor=none;fontSize=13;fontStyle=2" parent="1" vertex="1">
          <mxGeometry x="735" y="140" width="150" height="30" as="geometry" />
        </mxCell>
        <mxCell id="hxu1r069ynIci4zNe8fm-30" value="" style="endArrow=classic;html=1;rounded=0;" parent="1" edge="1">
          <mxGeometry width="50" height="50" relative="1" as="geometry">
            <mxPoint x="959.9773684210525" y="210.00000000000045" as="sourcePoint" />
            <mxPoint x="1210.03" y="210.00000000000045" as="targetPoint" />
          </mxGeometry>
        </mxCell>
        <mxCell id="hxu1r069ynIci4zNe8fm-34" value="&quot;call&quot;" style="text;html=1;align=center;verticalAlign=middle;resizable=0;points=[];autosize=1;strokeColor=none;fillColor=none;fontSize=13;fontStyle=2" parent="1" vertex="1">
          <mxGeometry x="1060" y="170" width="50" height="30" as="geometry" />
        </mxCell>
        <mxCell id="hxu1r069ynIci4zNe8fm-36" value="&lt;font style=&quot;font-size: 13px;&quot;&gt;&lt;i&gt;return positions&lt;/i&gt;&lt;/font&gt;" style="html=1;verticalAlign=bottom;endArrow=open;dashed=1;endSize=8;curved=0;rounded=0;" parent="1" edge="1">
          <mxGeometry x="-0.0339" relative="1" as="geometry">
            <mxPoint x="955.5" y="240" as="sourcePoint" />
            <mxPoint x="675" y="240" as="targetPoint" />
            <Array as="points">
              <mxPoint x="806" y="240" />
            </Array>
            <mxPoint as="offset" />
          </mxGeometry>
        </mxCell>
        <mxCell id="hxu1r069ynIci4zNe8fm-37" value="&lt;font style=&quot;font-size: 13px;&quot;&gt;&lt;i&gt;return available positions&lt;/i&gt;&lt;/font&gt;" style="html=1;verticalAlign=bottom;endArrow=open;dashed=1;endSize=8;curved=0;rounded=0;" parent="1" source="hxu1r069ynIci4zNe8fm-16" target="hxu1r069ynIci4zNe8fm-5" edge="1">
          <mxGeometry x="-0.124" relative="1" as="geometry">
            <mxPoint x="680.5" y="290" as="sourcePoint" />
            <mxPoint x="400" y="290" as="targetPoint" />
            <Array as="points">
              <mxPoint x="540" y="310" />
            </Array>
            <mxPoint x="1" as="offset" />
          </mxGeometry>
        </mxCell>
        <mxCell id="hxu1r069ynIci4zNe8fm-38" value="View-Available-Traineeships" style="shape=umlLifeline;perimeter=lifelinePerimeter;whiteSpace=wrap;html=1;container=1;dropTarget=0;collapsible=0;recursiveResize=0;outlineConnect=0;portConstraint=eastwest;newEdgeStyle={&quot;curved&quot;:0,&quot;rounded&quot;:0};fontSize=14;fontStyle=1" parent="1" vertex="1">
          <mxGeometry x="1320" width="150" height="1760" as="geometry" />
        </mxCell>
        <mxCell id="hxu1r069ynIci4zNe8fm-35" value="" style="html=1;points=[[0,0,0,0,5],[0,1,0,0,-5],[1,0,0,0,5],[1,1,0,0,-5]];perimeter=orthogonalPerimeter;outlineConnect=0;targetShapes=umlLifeline;portConstraint=eastwest;newEdgeStyle={&quot;curved&quot;:0,&quot;rounded&quot;:0};strokeColor=#000000;fillColor=#dae8fc;" parent="hxu1r069ynIci4zNe8fm-38" vertex="1">
          <mxGeometry x="70" y="602" width="10" height="178" as="geometry" />
        </mxCell>
        <mxCell id="hxu1r069ynIci4zNe8fm-80" value="" style="html=1;points=[[0,0,0,0,5],[0,1,0,0,-5],[1,0,0,0,5],[1,1,0,0,-5]];perimeter=orthogonalPerimeter;outlineConnect=0;targetShapes=umlLifeline;portConstraint=eastwest;newEdgeStyle={&quot;curved&quot;:0,&quot;rounded&quot;:0};strokeColor=#000000;fillColor=#dae8fc;" parent="hxu1r069ynIci4zNe8fm-38" vertex="1">
          <mxGeometry x="70" y="340" width="10" height="170" as="geometry" />
        </mxCell>
        <mxCell id="hxu1r069ynIci4zNe8fm-115" value="" style="html=1;points=[[0,0,0,0,5],[0,1,0,0,-5],[1,0,0,0,5],[1,1,0,0,-5]];perimeter=orthogonalPerimeter;outlineConnect=0;targetShapes=umlLifeline;portConstraint=eastwest;newEdgeStyle={&quot;curved&quot;:0,&quot;rounded&quot;:0};strokeColor=#000000;fillColor=#dae8fc;" parent="hxu1r069ynIci4zNe8fm-38" vertex="1">
          <mxGeometry x="70" y="1130" width="10" height="100" as="geometry" />
        </mxCell>
        <mxCell id="hxu1r069ynIci4zNe8fm-118" value="" style="html=1;points=[[0,0,0,0,5],[0,1,0,0,-5],[1,0,0,0,5],[1,1,0,0,-5]];perimeter=orthogonalPerimeter;outlineConnect=0;targetShapes=umlLifeline;portConstraint=eastwest;newEdgeStyle={&quot;curved&quot;:0,&quot;rounded&quot;:0};strokeColor=#000000;fillColor=#dae8fc;" parent="hxu1r069ynIci4zNe8fm-38" vertex="1">
          <mxGeometry x="70" y="1570" width="10" height="80" as="geometry" />
        </mxCell>
        <mxCell id="hxu1r069ynIci4zNe8fm-39" value="" style="endArrow=classic;html=1;rounded=0;" parent="1" edge="1">
          <mxGeometry width="50" height="50" relative="1" as="geometry">
            <mxPoint x="399.4473684210525" y="630.0000000000005" as="sourcePoint" />
            <mxPoint x="1394.5" y="630.0000000000005" as="targetPoint" />
          </mxGeometry>
        </mxCell>
        <mxCell id="hxu1r069ynIci4zNe8fm-40" value="&quot;call&quot;" style="text;html=1;align=center;verticalAlign=middle;resizable=0;points=[];autosize=1;strokeColor=none;fillColor=none;fontSize=13;fontStyle=2" parent="1" vertex="1">
          <mxGeometry x="520" y="600" width="50" height="30" as="geometry" />
        </mxCell>
        <mxCell id="hxu1r069ynIci4zNe8fm-41" value="" style="endArrow=classic;html=1;rounded=0;" parent="1" source="hxu1r069ynIci4zNe8fm-2" edge="1">
          <mxGeometry width="50" height="50" relative="1" as="geometry">
            <mxPoint x="-100.00263157894751" y="720.0000000000005" as="sourcePoint" />
            <mxPoint x="1390" y="720.0000000000005" as="targetPoint" />
          </mxGeometry>
        </mxCell>
        <mxCell id="hxu1r069ynIci4zNe8fm-42" value="Select traineeship positions &amp;amp;&amp;nbsp;&lt;div&gt;click &quot;Apply&quot;&lt;/div&gt;" style="text;html=1;align=center;verticalAlign=middle;resizable=0;points=[];autosize=1;strokeColor=none;fillColor=none;fontSize=13;fontStyle=2" parent="1" vertex="1">
          <mxGeometry x="-80" y="1120" width="200" height="40" as="geometry" />
        </mxCell>
        <mxCell id="hxu1r069ynIci4zNe8fm-45" value="ApplyPosition()" style="text;html=1;align=center;verticalAlign=middle;resizable=0;points=[];autosize=1;strokeColor=none;fillColor=none;fontSize=13;fontStyle=2" parent="1" vertex="1">
          <mxGeometry x="1250" y="1180" width="110" height="30" as="geometry" />
        </mxCell>
        <mxCell id="hxu1r069ynIci4zNe8fm-53" value="&lt;font style=&quot;font-size: 13px;&quot;&gt;&lt;i&gt;return positions&lt;/i&gt;&lt;/font&gt;" style="html=1;verticalAlign=bottom;endArrow=open;dashed=1;endSize=8;curved=0;rounded=0;" parent="1" source="hxu1r069ynIci4zNe8fm-24" edge="1">
          <mxGeometry x="-0.124" relative="1" as="geometry">
            <mxPoint x="1219.5" y="250" as="sourcePoint" />
            <mxPoint x="969.5" y="250" as="targetPoint" />
            <Array as="points">
              <mxPoint x="1070" y="250" />
            </Array>
            <mxPoint x="1" as="offset" />
          </mxGeometry>
        </mxCell>
        <mxCell id="hxu1r069ynIci4zNe8fm-60" value="Student" style="shape=umlLifeline;perimeter=lifelinePerimeter;whiteSpace=wrap;html=1;container=1;dropTarget=0;collapsible=0;recursiveResize=0;outlineConnect=0;portConstraint=eastwest;newEdgeStyle={&quot;curved&quot;:0,&quot;rounded&quot;:0};fontSize=14;fontStyle=1" parent="1" vertex="1">
          <mxGeometry x="1520" width="120" height="1650" as="geometry" />
        </mxCell>
        <mxCell id="hxu1r069ynIci4zNe8fm-64" value="" style="html=1;points=[[0,0,0,0,5],[0,1,0,0,-5],[1,0,0,0,5],[1,1,0,0,-5]];perimeter=orthogonalPerimeter;outlineConnect=0;targetShapes=umlLifeline;portConstraint=eastwest;newEdgeStyle={&quot;curved&quot;:0,&quot;rounded&quot;:0};strokeColor=#000000;fillColor=#dae8fc;" parent="hxu1r069ynIci4zNe8fm-60" vertex="1">
          <mxGeometry x="55" y="1380" width="10" height="100" as="geometry" />
        </mxCell>
        <mxCell id="hxu1r069ynIci4zNe8fm-70" value="StudentDAORepository" style="shape=umlLifeline;perimeter=lifelinePerimeter;whiteSpace=wrap;html=1;container=1;dropTarget=0;collapsible=0;recursiveResize=0;outlineConnect=0;portConstraint=eastwest;newEdgeStyle={&quot;curved&quot;:0,&quot;rounded&quot;:0};fontSize=14;fontStyle=1" parent="1" vertex="1">
          <mxGeometry x="1720" width="240" height="1660" as="geometry" />
        </mxCell>
        <mxCell id="hxu1r069ynIci4zNe8fm-72" value="" style="html=1;points=[[0,0,0,0,5],[0,1,0,0,-5],[1,0,0,0,5],[1,1,0,0,-5]];perimeter=orthogonalPerimeter;outlineConnect=0;targetShapes=umlLifeline;portConstraint=eastwest;newEdgeStyle={&quot;curved&quot;:0,&quot;rounded&quot;:0};strokeColor=#000000;fillColor=#dae8fc;" parent="hxu1r069ynIci4zNe8fm-70" vertex="1">
          <mxGeometry x="115" y="1470" width="10" height="70" as="geometry" />
        </mxCell>
        <mxCell id="hxu1r069ynIci4zNe8fm-76" value="Available Traineeships Posistions" style="text;html=1;align=center;verticalAlign=middle;resizable=0;points=[];autosize=1;strokeColor=#666666;fillColor=#f5f5f5;fontSize=14;fontStyle=2;fontColor=#333333;" parent="1" vertex="1">
          <mxGeometry x="425" y="240" width="230" height="30" as="geometry" />
        </mxCell>
        <mxCell id="hxu1r069ynIci4zNe8fm-77" value="alt" style="shape=umlFrame;whiteSpace=wrap;html=1;pointerEvents=0;" parent="1" vertex="1">
          <mxGeometry x="120" y="220" width="1340" height="360" as="geometry" />
        </mxCell>
        <mxCell id="hxu1r069ynIci4zNe8fm-78" value="No Available Traineeships Posistions" style="text;html=1;align=center;verticalAlign=middle;resizable=0;points=[];autosize=1;strokeColor=#666666;fillColor=#f5f5f5;fontSize=14;fontStyle=2;fontColor=#333333;" parent="1" vertex="1">
          <mxGeometry x="415" y="330" width="250" height="30" as="geometry" />
        </mxCell>
        <mxCell id="hxu1r069ynIci4zNe8fm-79" value="" style="endArrow=classic;html=1;rounded=0;" parent="1" edge="1">
          <mxGeometry width="50" height="50" relative="1" as="geometry">
            <mxPoint x="399.9973684210525" y="400.00000000000045" as="sourcePoint" />
            <mxPoint x="1395.05" y="400.00000000000045" as="targetPoint" />
          </mxGeometry>
        </mxCell>
        <mxCell id="hxu1r069ynIci4zNe8fm-81" value="&quot;call&quot;" style="text;html=1;align=center;verticalAlign=middle;resizable=0;points=[];autosize=1;strokeColor=none;fillColor=none;" parent="1" vertex="1">
          <mxGeometry x="485" y="368" width="50" height="30" as="geometry" />
        </mxCell>
        <mxCell id="hxu1r069ynIci4zNe8fm-82" value="" style="endArrow=classic;html=1;rounded=0;" parent="1" source="hxu1r069ynIci4zNe8fm-2" target="hxu1r069ynIci4zNe8fm-38" edge="1">
          <mxGeometry width="50" height="50" relative="1" as="geometry">
            <mxPoint x="209.9973684210525" y="450.00000000000045" as="sourcePoint" />
            <mxPoint x="1205.05" y="450.00000000000045" as="targetPoint" />
            <Array as="points">
              <mxPoint x="290" y="440" />
            </Array>
          </mxGeometry>
        </mxCell>
        <mxCell id="hxu1r069ynIci4zNe8fm-83" value="No Available Traineeships&amp;nbsp;&lt;div&gt;to view &amp;amp; click &quot;Return&quot;&lt;/div&gt;" style="text;html=1;align=center;verticalAlign=middle;resizable=0;points=[];autosize=1;strokeColor=none;fillColor=none;fontSize=13;fontStyle=2" parent="1" vertex="1">
          <mxGeometry x="-70" y="400" width="180" height="40" as="geometry" />
        </mxCell>
        <mxCell id="hxu1r069ynIci4zNe8fm-86" value="" style="endArrow=classic;html=1;rounded=0;" parent="1" edge="1">
          <mxGeometry width="50" height="50" relative="1" as="geometry">
            <mxPoint x="1392.5" y="480" as="sourcePoint" />
            <mxPoint x="407.5" y="480" as="targetPoint" />
          </mxGeometry>
        </mxCell>
        <mxCell id="hxu1r069ynIci4zNe8fm-87" value="getStudentMainMenu()" style="text;html=1;align=center;verticalAlign=middle;resizable=0;points=[];autosize=1;strokeColor=none;fillColor=none;fontSize=13;fontStyle=2" parent="1" vertex="1">
          <mxGeometry x="1205" y="448" width="160" height="30" as="geometry" />
        </mxCell>
        <mxCell id="hxu1r069ynIci4zNe8fm-89" value="" style="endArrow=classic;html=1;rounded=0;" parent="1" source="hxu1r069ynIci4zNe8fm-84" target="hxu1r069ynIci4zNe8fm-88" edge="1">
          <mxGeometry width="50" height="50" relative="1" as="geometry">
            <mxPoint x="540" y="360" as="sourcePoint" />
            <mxPoint x="590" y="310" as="targetPoint" />
            <Array as="points">
              <mxPoint x="230" y="515" />
            </Array>
          </mxGeometry>
        </mxCell>
        <mxCell id="hxu1r069ynIci4zNe8fm-90" value="&quot;call&quot;" style="text;html=1;align=center;verticalAlign=middle;resizable=0;points=[];autosize=1;strokeColor=none;fillColor=none;fontSize=13;fontStyle=2" parent="1" vertex="1">
          <mxGeometry x="225" y="478" width="50" height="30" as="geometry" />
        </mxCell>
        <mxCell id="hxu1r069ynIci4zNe8fm-51" value="" style="html=1;points=[[0,0,0,0,5],[0,1,0,0,-5],[1,0,0,0,5],[1,1,0,0,-5]];perimeter=orthogonalPerimeter;outlineConnect=0;targetShapes=umlLifeline;portConstraint=eastwest;newEdgeStyle={&quot;curved&quot;:0,&quot;rounded&quot;:0};strokeColor=#000000;fillColor=#dae8fc;" parent="1" vertex="1">
          <mxGeometry x="1180" y="1280" width="10" height="90" as="geometry" />
        </mxCell>
        <mxCell id="hxu1r069ynIci4zNe8fm-32" value="&lt;font style=&quot;font-size: 13px;&quot;&gt;&lt;i&gt;return selected position&lt;/i&gt;&lt;/font&gt;" style="html=1;verticalAlign=bottom;endArrow=open;dashed=1;endSize=8;curved=0;rounded=0;" parent="1" target="hxu1r069ynIci4zNe8fm-50" edge="1">
          <mxGeometry x="-0.124" relative="1" as="geometry">
            <mxPoint x="1185" y="1360" as="sourcePoint" />
            <mxPoint x="935" y="1360" as="targetPoint" />
            <Array as="points">
              <mxPoint x="1035.5" y="1360" />
            </Array>
            <mxPoint x="1" as="offset" />
          </mxGeometry>
        </mxCell>
        <mxCell id="hxu1r069ynIci4zNe8fm-46" value="" style="endArrow=classic;html=1;rounded=0;" parent="1" source="hxu1r069ynIci4zNe8fm-43" target="hxu1r069ynIci4zNe8fm-48" edge="1">
          <mxGeometry width="50" height="50" relative="1" as="geometry">
            <mxPoint x="374.9973684210525" y="1260.0000000000005" as="sourcePoint" />
            <mxPoint x="655.05" y="1260.0000000000005" as="targetPoint" />
            <Array as="points">
              <mxPoint x="540" y="1260" />
            </Array>
          </mxGeometry>
        </mxCell>
        <mxCell id="hxu1r069ynIci4zNe8fm-47" value="ApplyForPosition()" style="text;html=1;align=center;verticalAlign=middle;resizable=0;points=[];autosize=1;strokeColor=none;fillColor=none;fontSize=13;fontStyle=2" parent="1" vertex="1">
          <mxGeometry x="445" y="1230" width="130" height="30" as="geometry" />
        </mxCell>
        <mxCell id="hxu1r069ynIci4zNe8fm-52" value="" style="endArrow=classic;html=1;rounded=0;" parent="1" source="hxu1r069ynIci4zNe8fm-50" edge="1">
          <mxGeometry width="50" height="50" relative="1" as="geometry">
            <mxPoint x="939.5" y="1320" as="sourcePoint" />
            <mxPoint x="1180.5" y="1320" as="targetPoint" />
          </mxGeometry>
        </mxCell>
        <mxCell id="hxu1r069ynIci4zNe8fm-54" value="&quot;call&quot;" style="text;html=1;align=center;verticalAlign=middle;resizable=0;points=[];autosize=1;strokeColor=none;fillColor=none;fontSize=13;fontStyle=2" parent="1" vertex="1">
          <mxGeometry x="1035" y="1290" width="50" height="30" as="geometry" />
        </mxCell>
        <mxCell id="hxu1r069ynIci4zNe8fm-55" value="" style="endArrow=classic;html=1;rounded=0;" parent="1" source="hxu1r069ynIci4zNe8fm-16" target="hxu1r069ynIci4zNe8fm-50" edge="1">
          <mxGeometry width="50" height="50" relative="1" as="geometry">
            <mxPoint x="680" y="1290" as="sourcePoint" />
            <mxPoint x="910.03" y="1290.0000000000005" as="targetPoint" />
            <Array as="points">
              <mxPoint x="810" y="1290" />
            </Array>
          </mxGeometry>
        </mxCell>
        <mxCell id="hxu1r069ynIci4zNe8fm-56" value="findByID()" style="text;html=1;align=center;verticalAlign=middle;resizable=0;points=[];autosize=1;strokeColor=none;fillColor=none;fontSize=13;fontStyle=2" parent="1" vertex="1">
          <mxGeometry x="755" y="1260" width="80" height="30" as="geometry" />
        </mxCell>
        <mxCell id="hxu1r069ynIci4zNe8fm-58" value="&lt;font style=&quot;font-size: 13px;&quot;&gt;&lt;i&gt;return selected position&lt;/i&gt;&lt;/font&gt;" style="html=1;verticalAlign=bottom;endArrow=open;dashed=1;endSize=8;curved=0;rounded=0;" parent="1" edge="1">
          <mxGeometry x="-0.124" relative="1" as="geometry">
            <mxPoint x="965" y="1380" as="sourcePoint" />
            <mxPoint x="684.25" y="1380" as="targetPoint" />
            <Array as="points">
              <mxPoint x="815.5" y="1380" />
            </Array>
            <mxPoint x="1" as="offset" />
          </mxGeometry>
        </mxCell>
        <mxCell id="hxu1r069ynIci4zNe8fm-65" value="" style="endArrow=classic;html=1;rounded=0;" parent="1" source="hxu1r069ynIci4zNe8fm-59" target="hxu1r069ynIci4zNe8fm-64" edge="1">
          <mxGeometry width="50" height="50" relative="1" as="geometry">
            <mxPoint x="654.4473684210525" y="1420.0000000000005" as="sourcePoint" />
            <mxPoint x="1554.5" y="1420.0000000000005" as="targetPoint" />
            <Array as="points">
              <mxPoint x="1220" y="1430" />
            </Array>
          </mxGeometry>
        </mxCell>
        <mxCell id="hxu1r069ynIci4zNe8fm-66" value="getAppliedPositions()" style="text;html=1;align=center;verticalAlign=middle;resizable=0;points=[];autosize=1;strokeColor=none;fillColor=none;fontSize=13;fontStyle=2" parent="1" vertex="1">
          <mxGeometry x="725" y="1400" width="150" height="30" as="geometry" />
        </mxCell>
        <mxCell id="hxu1r069ynIci4zNe8fm-69" value="&lt;font style=&quot;font-size: 13px;&quot;&gt;&lt;i&gt;add(position)&lt;/i&gt;&lt;/font&gt;" style="html=1;align=left;spacingLeft=2;endArrow=block;rounded=0;edgeStyle=orthogonalEdgeStyle;curved=0;rounded=0;" parent="1" edge="1">
          <mxGeometry relative="1" as="geometry">
            <mxPoint x="1580" y="1440" as="sourcePoint" />
            <Array as="points">
              <mxPoint x="1610" y="1470" />
            </Array>
            <mxPoint x="1585.0000000000005" y="1470" as="targetPoint" />
          </mxGeometry>
        </mxCell>
        <mxCell id="hxu1r069ynIci4zNe8fm-73" value="save()" style="text;html=1;align=center;verticalAlign=middle;resizable=0;points=[];autosize=1;strokeColor=none;fillColor=none;fontSize=13;fontStyle=2" parent="1" vertex="1">
          <mxGeometry x="740" y="1480" width="60" height="30" as="geometry" />
        </mxCell>
        <mxCell id="hxu1r069ynIci4zNe8fm-75" value="" style="endArrow=classic;html=1;rounded=0;" parent="1" source="hxu1r069ynIci4zNe8fm-59" target="hxu1r069ynIci4zNe8fm-72" edge="1">
          <mxGeometry width="50" height="50" relative="1" as="geometry">
            <mxPoint x="660" y="1500" as="sourcePoint" />
            <mxPoint x="1810" y="1500" as="targetPoint" />
            <Array as="points">
              <mxPoint x="1270" y="1510" />
            </Array>
          </mxGeometry>
        </mxCell>
        <mxCell id="hxu1r069ynIci4zNe8fm-92" value="opt" style="shape=umlFrame;whiteSpace=wrap;html=1;pointerEvents=0;strokeColor=#000000;" parent="1" vertex="1">
          <mxGeometry x="320" y="670" width="2050" height="200" as="geometry" />
        </mxCell>
        <mxCell id="hxu1r069ynIci4zNe8fm-93" value="Selects traineeship positions &amp;amp;&amp;nbsp;&lt;div&gt;click on the name of the company&lt;/div&gt;" style="text;html=1;align=center;verticalAlign=middle;resizable=0;points=[];autosize=1;strokeColor=none;fillColor=none;fontSize=13;fontStyle=2" parent="1" vertex="1">
          <mxGeometry x="-90" y="673" width="220" height="40" as="geometry" />
        </mxCell>
        <mxCell id="hxu1r069ynIci4zNe8fm-95" value="InformationsController" style="shape=umlLifeline;perimeter=lifelinePerimeter;whiteSpace=wrap;html=1;container=1;dropTarget=0;collapsible=0;recursiveResize=0;outlineConnect=0;portConstraint=eastwest;newEdgeStyle={&quot;curved&quot;:0,&quot;rounded&quot;:0};fontSize=14;fontStyle=1" parent="1" vertex="1">
          <mxGeometry x="2000" width="190" height="1180" as="geometry" />
        </mxCell>
        <mxCell id="hxu1r069ynIci4zNe8fm-96" value="" style="endArrow=classic;html=1;rounded=0;" parent="1" source="hxu1r069ynIci4zNe8fm-98" target="hxu1r069ynIci4zNe8fm-95" edge="1">
          <mxGeometry width="50" height="50" relative="1" as="geometry">
            <mxPoint x="1390" y="769.5699999999999" as="sourcePoint" />
            <mxPoint x="1670" y="769.5699999999999" as="targetPoint" />
            <Array as="points" />
          </mxGeometry>
        </mxCell>
        <mxCell id="hxu1r069ynIci4zNe8fm-97" value="showCompanyDetails()" style="text;html=1;align=center;verticalAlign=middle;resizable=0;points=[];autosize=1;strokeColor=none;fillColor=none;" parent="1" vertex="1">
          <mxGeometry x="1410" y="728" width="150" height="30" as="geometry" />
        </mxCell>
        <mxCell id="hxu1r069ynIci4zNe8fm-99" value="" style="endArrow=classic;html=1;rounded=0;" parent="1" source="hxu1r069ynIci4zNe8fm-35" target="hxu1r069ynIci4zNe8fm-98" edge="1">
          <mxGeometry width="50" height="50" relative="1" as="geometry">
            <mxPoint x="1400" y="760" as="sourcePoint" />
            <mxPoint x="2095" y="760" as="targetPoint" />
            <Array as="points">
              <mxPoint x="1750" y="760" />
            </Array>
          </mxGeometry>
        </mxCell>
        <mxCell id="hxu1r069ynIci4zNe8fm-98" value="" style="html=1;points=[[0,0,0,0,5],[0,1,0,0,-5],[1,0,0,0,5],[1,1,0,0,-5]];perimeter=orthogonalPerimeter;outlineConnect=0;targetShapes=umlLifeline;portConstraint=eastwest;newEdgeStyle={&quot;curved&quot;:0,&quot;rounded&quot;:0};strokeColor=#000000;fillColor=#dae8fc;" parent="1" vertex="1">
          <mxGeometry x="2090" y="730" width="10" height="80" as="geometry" />
        </mxCell>
        <mxCell id="hxu1r069ynIci4zNe8fm-100" value="company-details" style="shape=umlLifeline;perimeter=lifelinePerimeter;whiteSpace=wrap;html=1;container=1;dropTarget=0;collapsible=0;recursiveResize=0;outlineConnect=0;portConstraint=eastwest;newEdgeStyle={&quot;curved&quot;:0,&quot;rounded&quot;:0};fontSize=14;fontStyle=1" parent="1" vertex="1">
          <mxGeometry x="2240" width="190" height="930" as="geometry" />
        </mxCell>
        <mxCell id="hxu1r069ynIci4zNe8fm-102" value="" style="html=1;points=[[0,0,0,0,5],[0,1,0,0,-5],[1,0,0,0,5],[1,1,0,0,-5]];perimeter=orthogonalPerimeter;outlineConnect=0;targetShapes=umlLifeline;portConstraint=eastwest;newEdgeStyle={&quot;curved&quot;:0,&quot;rounded&quot;:0};strokeColor=#000000;fillColor=#dae8fc;" parent="hxu1r069ynIci4zNe8fm-100" vertex="1">
          <mxGeometry x="90" y="750" width="10" height="100" as="geometry" />
        </mxCell>
        <mxCell id="hxu1r069ynIci4zNe8fm-101" value="" style="endArrow=classic;html=1;rounded=0;" parent="1" source="hxu1r069ynIci4zNe8fm-98" edge="1">
          <mxGeometry width="50" height="50" relative="1" as="geometry">
            <mxPoint x="2125" y="790" as="sourcePoint" />
            <mxPoint x="2330" y="790" as="targetPoint" />
          </mxGeometry>
        </mxCell>
        <mxCell id="hxu1r069ynIci4zNe8fm-103" value="&quot;call&quot;" style="text;html=1;align=center;verticalAlign=middle;resizable=0;points=[];autosize=1;strokeColor=none;fillColor=none;fontSize=13;fontStyle=2" parent="1" vertex="1">
          <mxGeometry x="2145" y="758" width="50" height="30" as="geometry" />
        </mxCell>
        <mxCell id="hxu1r069ynIci4zNe8fm-104" value="" style="endArrow=classic;html=1;rounded=0;" parent="1" source="hxu1r069ynIci4zNe8fm-2" target="hxu1r069ynIci4zNe8fm-102" edge="1">
          <mxGeometry width="50" height="50" relative="1" as="geometry">
            <mxPoint x="-70" y="840" as="sourcePoint" />
            <mxPoint x="1426" y="840.0000000000005" as="targetPoint" />
            <Array as="points">
              <mxPoint x="1110" y="830" />
            </Array>
          </mxGeometry>
        </mxCell>
        <mxCell id="hxu1r069ynIci4zNe8fm-105" value="Read the company details &amp;amp;&lt;div&gt;click &quot;Back&quot;&amp;nbsp;&lt;/div&gt;" style="text;html=1;align=center;verticalAlign=middle;resizable=0;points=[];autosize=1;strokeColor=none;fillColor=none;fontSize=13;fontStyle=2" parent="1" vertex="1">
          <mxGeometry x="-90" y="788" width="190" height="40" as="geometry" />
        </mxCell>
        <mxCell id="hxu1r069ynIci4zNe8fm-106" value="View company details" style="text;html=1;align=center;verticalAlign=middle;resizable=0;points=[];autosize=1;strokeColor=#666666;fillColor=#f5f5f5;fontSize=14;fontStyle=2;fontColor=#333333;" parent="1" vertex="1">
          <mxGeometry x="870" y="683" width="160" height="30" as="geometry" />
        </mxCell>
        <mxCell id="hxu1r069ynIci4zNe8fm-108" value="alt" style="shape=umlFrame;whiteSpace=wrap;html=1;pointerEvents=0;" parent="1" vertex="1">
          <mxGeometry x="310" y="930" width="1350" height="200" as="geometry" />
        </mxCell>
        <mxCell id="hxu1r069ynIci4zNe8fm-109" value="Assigned Traineeship position" style="text;html=1;align=center;verticalAlign=middle;resizable=0;points=[];autosize=1;strokeColor=#666666;fillColor=#f5f5f5;fontSize=14;fontStyle=2;fontColor=#333333;" parent="1" vertex="1">
          <mxGeometry x="850" y="940" width="210" height="30" as="geometry" />
        </mxCell>
        <mxCell id="hxu1r069ynIci4zNe8fm-110" value="" style="html=1;points=[[0,0,0,0,5],[0,1,0,0,-5],[1,0,0,0,5],[1,1,0,0,-5]];perimeter=orthogonalPerimeter;outlineConnect=0;targetShapes=umlLifeline;portConstraint=eastwest;newEdgeStyle={&quot;curved&quot;:0,&quot;rounded&quot;:0};strokeColor=#000000;fillColor=#dae8fc;" parent="1" vertex="1">
          <mxGeometry x="1390" y="970" width="10" height="80" as="geometry" />
        </mxCell>
        <mxCell id="hxu1r069ynIci4zNe8fm-112" value="show&amp;nbsp;&lt;div&gt;successful&amp;nbsp;&lt;div&gt;message&lt;/div&gt;&lt;/div&gt;" style="html=1;align=left;spacingLeft=2;endArrow=block;rounded=0;edgeStyle=orthogonalEdgeStyle;curved=0;rounded=0;fontSize=13;fontStyle=2" parent="1" edge="1">
          <mxGeometry relative="1" as="geometry">
            <mxPoint x="1400" y="1600" as="sourcePoint" />
            <Array as="points">
              <mxPoint x="1430" y="1630" />
            </Array>
            <mxPoint x="1405" y="1630.0588235294122" as="targetPoint" />
          </mxGeometry>
        </mxCell>
        <mxCell id="hxu1r069ynIci4zNe8fm-113" value="" style="endArrow=classic;html=1;rounded=0;exitX=1;exitY=0.793;exitDx=0;exitDy=0;exitPerimeter=0;" parent="1" source="hxu1r069ynIci4zNe8fm-115" target="hxu1r069ynIci4zNe8fm-5" edge="1">
          <mxGeometry width="50" height="50" relative="1" as="geometry">
            <mxPoint x="1389.5" y="1209.2900000000004" as="sourcePoint" />
            <mxPoint x="425" y="1209.2900000000004" as="targetPoint" />
          </mxGeometry>
        </mxCell>
        <mxCell id="hxu1r069ynIci4zNe8fm-43" value="" style="html=1;points=[[0,0,0,0,5],[0,1,0,0,-5],[1,0,0,0,5],[1,1,0,0,-5]];perimeter=orthogonalPerimeter;outlineConnect=0;targetShapes=umlLifeline;portConstraint=eastwest;newEdgeStyle={&quot;curved&quot;:0,&quot;rounded&quot;:0};strokeColor=#000000;fillColor=#dae8fc;" parent="1" vertex="1">
          <mxGeometry x="395" y="1180" width="10" height="100" as="geometry" />
        </mxCell>
        <mxCell id="hxu1r069ynIci4zNe8fm-114" value="" style="endArrow=classic;html=1;rounded=0;" parent="1" source="hxu1r069ynIci4zNe8fm-2" target="hxu1r069ynIci4zNe8fm-38" edge="1">
          <mxGeometry width="50" height="50" relative="1" as="geometry">
            <mxPoint x="460" y="1210" as="sourcePoint" />
            <mxPoint x="1380" y="1170" as="targetPoint" />
            <Array as="points">
              <mxPoint x="650" y="1160" />
            </Array>
          </mxGeometry>
        </mxCell>
        <mxCell id="hxu1r069ynIci4zNe8fm-50" value="" style="html=1;points=[[0,0,0,0,5],[0,1,0,0,-5],[1,0,0,0,5],[1,1,0,0,-5]];perimeter=orthogonalPerimeter;outlineConnect=0;targetShapes=umlLifeline;portConstraint=eastwest;newEdgeStyle={&quot;curved&quot;:0,&quot;rounded&quot;:0};strokeColor=#000000;fillColor=#dae8fc;" parent="1" vertex="1">
          <mxGeometry x="955" y="1255" width="10" height="140" as="geometry" />
        </mxCell>
        <mxCell id="hxu1r069ynIci4zNe8fm-59" value="" style="html=1;points=[[0,0,0,0,5],[0,1,0,0,-5],[1,0,0,0,5],[1,1,0,0,-5]];perimeter=orthogonalPerimeter;outlineConnect=0;targetShapes=umlLifeline;portConstraint=eastwest;newEdgeStyle={&quot;curved&quot;:0,&quot;rounded&quot;:0};strokeColor=#000000;fillColor=#dae8fc;" parent="1" vertex="1">
          <mxGeometry x="675" y="1350" width="10" height="200" as="geometry" />
        </mxCell>
        <mxCell id="hxu1r069ynIci4zNe8fm-119" value="show&amp;nbsp;&lt;div&gt;notification&amp;nbsp;&lt;div&gt;message&lt;/div&gt;&lt;/div&gt;" style="html=1;align=left;spacingLeft=2;endArrow=block;rounded=0;edgeStyle=orthogonalEdgeStyle;curved=0;rounded=0;fontSize=13;fontStyle=2" parent="1" edge="1">
          <mxGeometry relative="1" as="geometry">
            <mxPoint x="1410" y="1004.97" as="sourcePoint" />
            <Array as="points">
              <mxPoint x="1440" y="1034.97" />
            </Array>
            <mxPoint x="1415" y="1035.0288235294122" as="targetPoint" />
          </mxGeometry>
        </mxCell>
        <mxCell id="hxu1r069ynIci4zNe8fm-120" value="" style="html=1;points=[[0,0,0,0,5],[0,1,0,0,-5],[1,0,0,0,5],[1,1,0,0,-5]];perimeter=orthogonalPerimeter;outlineConnect=0;targetShapes=umlLifeline;portConstraint=eastwest;newEdgeStyle={&quot;curved&quot;:0,&quot;rounded&quot;:0};strokeColor=#000000;fillColor=#dae8fc;" parent="1" vertex="1">
          <mxGeometry x="395" y="1560" width="10" height="80" as="geometry" />
        </mxCell>
        <mxCell id="hxu1r069ynIci4zNe8fm-121" value="" style="endArrow=classic;html=1;rounded=0;" parent="1" source="hxu1r069ynIci4zNe8fm-5" target="hxu1r069ynIci4zNe8fm-38" edge="1">
          <mxGeometry width="50" height="50" relative="1" as="geometry">
            <mxPoint x="430" y="1580" as="sourcePoint" />
            <mxPoint x="700" y="1580" as="targetPoint" />
            <Array as="points">
              <mxPoint x="565" y="1580" />
            </Array>
          </mxGeometry>
        </mxCell>
        <mxCell id="hxu1r069ynIci4zNe8fm-122" value="call" style="text;html=1;align=center;verticalAlign=middle;resizable=0;points=[];autosize=1;strokeColor=none;fillColor=none;fontSize=13;fontStyle=2" parent="1" vertex="1">
          <mxGeometry x="450" y="1548" width="40" height="30" as="geometry" />
        </mxCell>
        <mxCell id="6Q5Exr9Ix6YSxqU1gmi0-1" value="sortbyLocation()" style="html=1;align=left;spacingLeft=2;endArrow=block;rounded=0;edgeStyle=orthogonalEdgeStyle;curved=0;rounded=0;fontSize=13;fontStyle=2" parent="1" edge="1">
          <mxGeometry relative="1" as="geometry">
            <mxPoint x="685" y="260" as="sourcePoint" />
            <Array as="points">
              <mxPoint x="715" y="290" />
            </Array>
            <mxPoint x="690" y="290.05882352941217" as="targetPoint" />
          </mxGeometry>
        </mxCell>
      </root>
    </mxGraphModel>
  </diagram>
</mxfile>
